<?xml version="1.0" encoding="UTF-8"?>
<svg id="Capa_1" xmlns="http://www.w3.org/2000/svg" version="1.1" xmlns:xlink="http://www.w3.org/1999/xlink" viewBox="0 0 28 28">
  <!-- Generator: Adobe Illustrator 30.0.0, SVG Export Plug-In . SVG Version: 2.1.1 Build 123)  -->
  <defs>
    <style>
      .st0 {
        fill: #1d1d1b;
      }

      .st1 {
        clip-path: url(#clippath-1);
      }

      .st2 {
        clip-path: url(#clippath-3);
      }

      .st3 {
        clip-path: url(#clippath-2);
      }

      .st4 {
        clip-path: url(#clippath);
      }
    </style>
    <clipPath id="clippath">
      <polygon class="st0" points="13.35 5.8 13.35 13.35 23.7 13.35 23.7 4.3 13.35 5.8"/>
    </clipPath>
    <clipPath id="clippath-1">
      <polygon class="st0" points="4.3 14.65 4.3 21.02 12.06 22.08 12.06 14.65 4.3 14.65"/>
    </clipPath>
    <clipPath id="clippath-2">
      <polygon class="st0" points="4.3 7.05 4.31 13.35 12.06 13.35 12.06 5.99 4.3 7.05"/>
    </clipPath>
    <clipPath id="clippath-3">
      <polygon class="st0" points="13.35 14.65 13.35 22.25 23.7 23.7 23.7 14.65 13.35 14.65"/>
    </clipPath>
  </defs>
  <g>
    <polygon class="st0" points="13.35 5.8 13.35 13.35 23.7 13.35 23.7 4.3 13.35 5.8"/>
    <g class="st4">
      <rect class="st0" x="13.35" y="4.3" width="10.35" height="9.06"/>
    </g>
  </g>
  <g>
    <polygon class="st0" points="4.3 14.65 4.3 21.02 12.06 22.08 12.06 14.65 4.3 14.65"/>
    <g class="st1">
      <rect class="st0" x="4.3" y="14.65" width="7.76" height="7.43"/>
    </g>
  </g>
  <g>
    <polygon class="st0" points="4.3 7.05 4.31 13.35 12.06 13.35 12.06 5.99 4.3 7.05"/>
    <g class="st3">
      <rect class="st0" x="4.3" y="5.99" width="7.76" height="7.36"/>
    </g>
  </g>
  <g>
    <polygon class="st0" points="13.35 14.65 13.35 22.25 23.7 23.7 23.7 14.65 13.35 14.65"/>
    <g class="st2">
      <rect class="st0" x="13.35" y="14.65" width="10.35" height="9.06"/>
    </g>
  </g>
</svg>