<?xml version="1.0" encoding="UTF-8"?>
<svg id="Capa_1" xmlns="http://www.w3.org/2000/svg" version="1.1" viewBox="0 0 28 28">
  <!-- Generator: Adobe Illustrator 30.0.0, SVG Export Plug-In . SVG Version: 2.1.1 Build 123)  -->
  <defs>
    <style>
      .st0 {
        fill: #fff;
      }
    </style>
  </defs>
  <path class="st0" d="M2.51,2.82h22.99v22.36H2.51V2.82ZM1.46,26.23h25.08V1.77H1.46v24.45ZM19.2,13.56c.53,0,.72,0,.77-.02,0-.07.02-.13.02-.18,0-.56-.27-1.61-1.36-1.61-1,0-1.43.88-1.54,1.81h2.1ZM17.08,14.99c.02,1.41.69,2.36,2.28,2.36.62,0,1.15-.08,1.7-.32.07-.03.13-.02.13.07v1.31c0,.11-.03.16-.11.21-.55.27-1.24.4-2.1.4-2.76,0-3.79-2.04-3.79-4.31,0-2.47,1.27-4.48,3.52-4.48s3.07,1.91,3.07,3.47c0,.5-.03.91-.08,1.11-.02.08-.05.11-.13.14-.21.03-.83.07-1.75.07h-2.74v-.02ZM11.48,13.93c-.29-1.16-1-3.69-1.26-4.91h-.02c-.22,1.22-.79,3.29-1.22,4.91h2.51ZM8.55,15.62l-.83,3.12c-.02.08-.05.12-.16.12h-1.54c-.1,0-.13-.03-.1-.16l2.97-10.38c.05-.19.08-.33.1-.86,0-.07.03-.1.08-.1h2.2c.07,0,.1.02.13.1l3.32,11.25c.02.08,0,.14-.08.14h-1.72c-.08,0-.14-.03-.16-.1l-.86-3.14h-3.35Z"/>
</svg>