<?xml version="1.0" encoding="UTF-8"?>
<svg id="Capa_1" xmlns="http://www.w3.org/2000/svg" version="1.1" viewBox="0 0 24 24">
  <!-- Generator: Adobe Illustrator 30.0.0, SVG Export Plug-In . SVG Version: 2.1.1 Build 123)  -->
  <defs>
    <style>
      .st0 {
        fill: #1d1d1b;
      }
    </style>
  </defs>
  <path class="st0" d="M.96,9.95c2.54-.81,5.47,0,7.7,4.1.2.39.46.29.45-.11.05-.41-.02-2.15-1.1-3.69-.04-.08,0-.12.06-.18.26-.19,2.14-.59,4.24-2.09.16-.11.86-.44.75-1.44-.35-2.46-2.31-4.13-2.86-4.47-.55-.34-.49.25-.48.34-.1,1.9-.67,4.7-2.71,6.61-.73-.21-.98-.72-.98-.72,0,0,2.74-3.58,2.03-6.44-.19-.8-.41-1.09-1.3-.91-.9.18-3.03.85-3.03.85,0,0-.33.13-.07.46.26.34,1.52,1.61.5,5.16-.93-.32-2.99-.71-3.2-.15-.21.56-.92,2.65,0,2.67"/>
  <path class="st0" d="M22.93,9.02c-.58.55-3.76,2.93-4.97,3.27-1.21.34-1.42-.27-1.24-.42.11-.11,2.79-3.01-.19-1.44-1.09.4-2.16-.49-2.38-1.28-.47-1.51-.46-1.81-1.53-.89-.58.48-1.61.99-2,1.13-1.18.28-1.65,1.6-.69,1.73.95.13,1.47-.02,1.21.25-.26.27-.64.52-.21.76.44.24,1.27.83,1.31.88.05.06.43.1.54-.18.11-.28.01-.36-.06-.4-.08-.04,0-.17.19-.15.18.02.62-.15.72-.22s1.34-.28,1.64.15c-.34.11-.44-.11-.93.06-.27.1-.91.18-1.21.87-.23.51-.31,1.57-1.24,1.27-.93-.3-1.88-.58-1.73-1.51.15-.93.08-1.54-.43-1.57-.03.15.13,1.01,0,1.73-.21.53-.28.85.13,1.18.41.32,3.51,1.78,5.32,3.73.69.71,1.05-.17.53-.58-.14-.15-.8-.74-.78-.95.01-.2.39.19.53.34-.38-.76.45-1.74,1.33-.64.36.35.11,1.17-.2,1.4.34-.34-.25-1.18-.72-.71-.24.23.43.76.58.89.15.13.68-.31.87-.62.14-.19.34-.35.62-1.59.09-.32.21-.44.5-.72.29-.29,4.46-3.78,4.92-5.26.27-.77.14-1.04-.43-.49M12.05,12.52c-.06-.06-.21-.22-.65-.47-.1-.27.14-.3.26-.3.12,0,.59.33.73.57.03.29-.28.26-.33.2"/>
  <path class="st0" d="M2.39,23.06l-.92-1.48c-.1,0-.27,0-.5-.02v1.5h-.47v-3.44s.14,0,.37-.02c.23-.01.39-.02.5-.02.83,0,1.24.33,1.24.99,0,.22-.07.41-.2.58-.13.17-.29.28-.47.32l1,1.58h-.54ZM.97,20.04v1.12c.11.02.22.02.33.02.28,0,.49-.05.62-.14.13-.09.19-.25.19-.49,0-.19-.07-.33-.21-.42-.14-.09-.36-.13-.65-.13-.05,0-.14,0-.28.02"/>
  <path class="st0" d="M4.8,23.06v-1.58c0-.19-.05-.34-.14-.44-.09-.11-.22-.16-.39-.16-.11,0-.22.03-.33.1-.11.06-.19.14-.25.22v1.87h-.45v-3.55h.45v1.31c.06-.09.16-.17.29-.23.13-.06.27-.09.41-.09.27,0,.48.09.63.26.15.18.23.42.23.72v1.58h-.45Z"/>
  <path class="st0" d="M9.72,21.8c0-.39.1-.7.31-.94.21-.24.49-.36.83-.36.36,0,.64.11.84.35.2.23.3.55.3.96s-.1.73-.31.96c-.2.23-.48.35-.83.35s-.64-.12-.84-.35c-.2-.24-.3-.56-.3-.96M10.19,21.8c0,.63.22.95.67.95.21,0,.37-.08.49-.25.12-.17.18-.4.18-.69,0-.62-.22-.94-.67-.94-.2,0-.37.08-.49.25-.12.17-.18.4-.18.69"/>
  <path class="st0" d="M14.37,20.75l-.22.32s-.12-.09-.24-.13c-.12-.04-.23-.06-.34-.06-.24,0-.44.08-.58.25-.14.17-.21.4-.21.7s.07.52.22.67c.15.15.35.23.61.23.2,0,.4-.08.61-.23l.18.38c-.24.15-.54.23-.89.23s-.63-.11-.85-.35c-.22-.23-.34-.54-.34-.94s.12-.72.35-.97c.23-.24.55-.36.96-.36.13,0,.27.03.42.08.15.05.26.11.34.17"/>
  <path class="st0" d="M16.97,21.85h-1.82c0,.29.08.52.24.68.14.14.33.21.55.21.26,0,.47-.07.64-.22l.19.32c-.07.07-.17.13-.32.18-.18.07-.38.1-.6.1-.32,0-.59-.11-.81-.32-.25-.24-.37-.56-.37-.96s.13-.75.38-1c.23-.22.49-.34.8-.34.36,0,.64.1.84.3.2.19.3.45.3.77,0,.1-.01.19-.04.27M15.89,20.87c-.2,0-.37.06-.5.19-.13.12-.2.27-.22.46h1.39c0-.18-.06-.33-.17-.45-.12-.13-.29-.2-.51-.2"/>
  <path class="st0" d="M18.85,20.98c-.1-.07-.2-.1-.29-.1-.16,0-.3.07-.42.22-.12.15-.18.32-.18.53v1.44h-.45v-2.52h.45v.4c.16-.3.41-.45.73-.45.08,0,.2.01.35.04l-.19.44Z"/>
  <path class="st0" d="M19.18,21.8c0-.39.1-.7.31-.94.21-.24.49-.36.83-.36.36,0,.64.11.84.35.2.23.3.55.3.96s-.1.73-.31.96c-.2.23-.48.35-.83.35s-.64-.12-.84-.35c-.2-.24-.3-.56-.3-.96M19.65,21.8c0,.63.22.95.67.95.21,0,.37-.08.49-.25.12-.17.18-.4.18-.69,0-.62-.22-.94-.67-.94-.2,0-.37.08-.49.25-.12.17-.18.4-.18.69"/>
  <path class="st0" d="M21.77,22.91l.16-.42c.25.16.45.25.6.25.28,0,.41-.12.41-.35,0-.17-.13-.31-.4-.43-.2-.09-.34-.17-.41-.21-.07-.05-.13-.1-.19-.17-.05-.06-.09-.13-.12-.2-.03-.07-.04-.14-.04-.22,0-.21.08-.37.23-.48.15-.12.35-.17.59-.17.18,0,.41.06.69.17l-.13.41c-.18-.14-.35-.21-.53-.21-.11,0-.2.02-.27.07-.07.05-.11.11-.11.19,0,.16.09.28.28.37l.32.15c.2.09.34.19.43.31.09.11.13.26.13.43,0,.23-.08.4-.24.53s-.38.19-.66.19c-.27,0-.51-.06-.75-.2"/>
  <path class="st0" d="M6.34,20.15c.08,0,.14-.03.2-.08.05-.05.08-.12.08-.2s-.03-.14-.08-.19-.12-.08-.2-.08-.14.03-.2.08c-.05.05-.08.12-.08.19s.03.14.08.2c.05.05.12.08.19.08"/>
  <polygon class="st0" points="6.09 20.92 6.09 23.06 6.54 23.06 6.54 20.55 6.09 20.55 6.09 20.92"/>
  <path class="st0" d="M8.42,20.5c-.33,0-.57.12-.72.37v-.33h-.45v2.52h.45v-1.87c.06-.09.14-.17.26-.23.11-.06.22-.09.32-.09.19,0,.32.05.41.16.08.11.12.3.12.56v1.47h.45v-1.56c0-.67-.27-1.01-.83-1.01"/>
</svg>