<?xml version="1.0" encoding="UTF-8"?>
<svg id="Capa_1" xmlns="http://www.w3.org/2000/svg" version="1.1" viewBox="0 0 24 24">
  <!-- Generator: Adobe Illustrator 30.0.0, SVG Export Plug-In . SVG Version: 2.1.1 Build 123)  -->
  <defs>
    <style>
      .st0 {
        fill: #1d1d1b;
      }
    </style>
  </defs>
  <path class="st0" d="M3.79,14.28s-2.26-3.94-1.45-6.33l.46-.23s-.91,2.16.97,5.04c0,0,1.82-3.34,3.78-4.23l.24.31s-1.95.8-4,5.44"/>
  <path class="st0" d="M6.59,8.07c-.02.25-.75.4-1.63.33-.89-.06-1.59-.31-1.57-.56.02-.25.75-.4,1.63-.34.89.06,1.59.31,1.57.56"/>
  <polygon class="st0" points="11.41 7.37 12.39 14.87 13.14 14.87 14.16 7.37 13.38 7.37 12.73 12.25 12.18 7.37 11.41 7.37"/>
  <rect class="st0" x="14.29" y="11.21" width=".75" height=".79"/>
  <path class="st0" d="M15.61,14.87v-7.5h.87v.36s.37-.36.82-.36v.86s-.57-.03-.82.41v6.23h-.87"/>
  <path class="st0" d="M19.37,13.88s0,.46-.47.46c-.44,0-.38-.34-.39-.51,0-.17,0-2.14,0-2.14,0,0-.05-.72.87-.74v2.93ZM18.95,7.37c-1.16,0-1.22,1.09-1.22,1.09v.91h.87v-.91c0-.2.02-.49.38-.48.39,0,.37.48.37.48v1.83c-1.81-.02-1.74,1.27-1.74,1.27v2.46s0,.05,0,.05c0,.78.45.94,1,.94s.75-.42.75-.42v.3h.88v-6.43c0-.2-.12-1.09-1.28-1.09"/>
  <polygon class="st0" points="20.64 7.39 21.77 14.89 21.55 16.3 22.34 16.3 23.5 7.39 22.66 7.39 22.09 12.22 21.5 7.39 20.64 7.39"/>
  <polygon class="st0" points="22.13 17.74 21.32 17.74 21.45 16.94 22.26 16.94 22.13 17.74"/>
  <path class="st0" d="M9.57,13.55c-1.54,2.31-4.16,2.25-4.16,2.25,0,0-1.82.04-3.1-1.26.67.46,1.48.73,2.35.73,2.28,0,4.13-1.83,4.16-4.11h0c.05-.92-.16-1.75-.53-2.44,1.08-.11,1.73,1,1.73,1,0,0,1.07,1.56-.45,3.84M4.66,7.3c2.1,0,3.8,1.7,3.8,3.8s-1.7,3.8-3.8,3.8-3.8-1.7-3.8-3.8,1.7-3.8,3.8-3.8M6.5,7.18c.45.3.79.62,1.06.95-.75-.73-1.78-1.18-2.91-1.18-.55,0-1.08.11-1.56.3.4-.48,1.43-1.24,3.4-.07M10.25,9.44c-.17-.26-.97-1.2-2.15-1.07-.85-1.34-2.28-2.12-3.44-2.12-1.47.01-2.1,1-2.28,1.36-1.13.74-1.88,2.02-1.88,3.48,0,.65.15,1.27.42,1.82.5,1.2,1.74,3.17,4.49,3.18,0,0,2.67.1,4.36-2.29,1.67-2.35.71-4.02.48-4.37"/>
</svg>