<?xml version="1.0" encoding="UTF-8"?>
<svg id="Capa_1" xmlns="http://www.w3.org/2000/svg" version="1.1" viewBox="0 0 28 28">
  <!-- Generator: Adobe Illustrator 30.0.0, SVG Export Plug-In . SVG Version: 2.1.1 Build 123)  -->
  <defs>
    <style>
      .st0 {
        fill: #fff;
      }
    </style>
  </defs>
  <path class="st0" d="M1.82,14.31v-.72c.27-.75.67-1.44,1.35-1.86.83-.52,1.71-.96,2.59-1.41.37-.19.78-.28,1.09-.39-.11-1.17-.29-2.27-.3-3.37-.01-1.99.64-2.91,2.24-3.43h.51c1.87.35,3.34,1.42,4.72,2.69,1.32-1.23,2.72-2.28,4.5-2.69h.92c1,.32,1.6,1.02,1.79,2.02.15.76.21,1.55.19,2.32-.02.82-.19,1.64-.3,2.45.54.2,1.08.36,1.58.59,1.5.68,2.97,1.41,3.49,3.17v.61c-.34,1.13-1.11,1.91-2.1,2.45-.93.51-1.92.93-2.92,1.41,0,.05.02.18.03.32.09,1.01.26,2.03.26,3.04,0,1.78-.71,2.82-2.13,3.33h-.82c-1.77-.4-3.16-1.43-4.46-2.66-1.31,1.24-2.76,2.25-4.55,2.66h-.82c-.93-.23-1.58-.79-1.84-1.72-.16-.57-.31-1.17-.29-1.75.03-1.08.18-2.16.29-3.27-.44-.16-.97-.32-1.46-.54-1.53-.71-3.01-1.48-3.56-3.27M14,17.9v-.02c.63,0,1.26.02,1.89-.01.18-.01.42-.15.51-.3.65-1.08,1.27-2.17,1.88-3.27.09-.16.1-.45,0-.6-.61-1.1-1.23-2.19-1.89-3.26-.1-.17-.4-.31-.61-.31-1.19-.03-2.38,0-3.58-.02-.31,0-.51.1-.66.36-.61,1.06-1.23,2.11-1.81,3.19-.1.18-.09.51,0,.69.46.89,1,1.74,1.46,2.63.34.66.77,1.06,1.58.93.4-.06.82-.01,1.22-.01M7.18,10.93c-1.36.42-2.68.9-3.72,1.91-.79.76-.82,1.41-.08,2.21,1.03,1.1,2.38,1.64,3.78,2.07.41-1.01.8-1.99,1.18-2.96.03-.09.04-.21,0-.3-.38-.97-.78-1.94-1.17-2.93M7.91,18.43c-.08.37-.16.71-.22,1.06-.17,1.1-.26,2.2.09,3.28.28.86.82,1.17,1.68.99,1.55-.32,2.71-1.27,3.82-2.27-.67-.85-1.31-1.67-1.95-2.48-.07-.08-.18-.16-.28-.18-1.02-.14-2.05-.26-3.13-.4M14.79,21.49c1.11.98,2.21,1.92,3.69,2.27.8.19,1.35-.05,1.64-.81.58-1.53.35-3.06,0-4.56-1.09.15-2.12.29-3.14.43-.1.01-.21.1-.28.18-.63.8-1.24,1.62-1.91,2.49M14.76,6.54c.65.84,1.27,1.63,1.9,2.42.08.1.2.2.31.22,1.02.16,2.04.3,3.11.45.08-.39.18-.79.23-1.18.15-1.1.24-2.21-.15-3.28-.32-.88-.82-1.13-1.71-.91-1.48.36-2.59,1.32-3.68,2.29M7.94,9.62c1.06-.15,2.04-.29,3.01-.44.12-.02.28-.07.35-.15.65-.82,1.29-1.65,1.95-2.49-1.14-.99-2.28-1.97-3.81-2.28-.86-.18-1.39.11-1.65.95-.46,1.49-.2,2.95.15,4.42M20.83,10.95c-.4.98-.79,1.93-1.17,2.89-.04.09-.02.24.03.34.39.96.78,1.91,1.17,2.86,1.18-.26,2.68-1.01,3.51-1.76,1.03-.93,1.01-1.74-.05-2.63-1.03-.85-2.23-1.33-3.49-1.71M12.54,18.95c.54.64,1,1.19,1.5,1.78.5-.62.94-1.17,1.44-1.78h-2.94ZM19.86,17.36c-.29-.74-.54-1.42-.83-2.18-.51.89-.96,1.68-1.46,2.57.8-.14,1.5-.25,2.3-.39M12.56,9.03h2.89c-.51-.61-.96-1.15-1.44-1.74-.5.6-.95,1.14-1.45,1.74M8.98,15.23c-.28.76-.52,1.42-.8,2.17.77.13,1.47.24,2.27.37-.51-.88-.96-1.66-1.47-2.54M17.56,10.27c.51.89.96,1.66,1.46,2.52.27-.75.52-1.41.78-2.13-.78-.14-1.46-.26-2.24-.39M9.01,12.74c.47-.82.92-1.61,1.42-2.48-.79.14-1.48.26-2.22.39.22.6.4,1.12.59,1.64.05.14.12.27.21.44"/>
  <path class="st0" d="M13.98,11.82c1.2,0,2.16.91,2.18,2.1.01,1.24-.94,2.23-2.17,2.23-1.18,0-2.14-.96-2.15-2.14,0-1.24.91-2.18,2.14-2.19"/>
</svg>